<svg width="70" height="70" viewBox="0 0 70 70" fill="none" xmlns="http://www.w3.org/2000/svg">
<rect width="70" height="70" rx="10" fill="#0083B0"/>
<path d="M10.2197 53V17.4531H19.6191C23.7695 17.4531 27.0736 18.7715 29.5312 21.4082C32.0052 24.0449 33.2666 27.6582 33.3154 32.248V38.0098C33.3154 42.681 32.0785 46.3512 29.6045 49.0205C27.1468 51.6735 23.7533 53 19.4238 53H10.2197ZM17.3975 23.4346V47.043H19.5459C21.9385 47.043 23.623 46.4163 24.5996 45.1631C25.5762 43.8936 26.0889 41.7126 26.1377 38.6201V32.4434C26.1377 29.123 25.6738 26.8118 24.7461 25.5098C23.8184 24.1914 22.2396 23.4997 20.0098 23.4346H17.3975Z" fill="white"/>
<path d="M53.5059 43.6738C53.5059 42.2253 53.1315 41.1348 52.3828 40.4023C51.6504 39.6536 50.3076 38.8805 48.3545 38.083C44.79 36.7321 42.2266 35.1533 40.6641 33.3467C39.1016 31.5238 38.3203 29.3753 38.3203 26.9014C38.3203 23.9066 39.3783 21.5059 41.4941 19.6992C43.6263 17.8763 46.3281 16.9648 49.5996 16.9648C51.7806 16.9648 53.7256 17.4287 55.4346 18.3564C57.1436 19.2679 58.4538 20.5618 59.3652 22.2383C60.293 23.9147 60.7568 25.819 60.7568 27.9512H53.6035C53.6035 26.291 53.2454 25.0296 52.5293 24.167C51.8294 23.2881 50.8122 22.8486 49.4775 22.8486C48.2243 22.8486 47.2477 23.223 46.5479 23.9717C45.848 24.7041 45.498 25.6969 45.498 26.9502C45.498 27.9268 45.8887 28.8138 46.6699 29.6113C47.4512 30.3926 48.8346 31.2064 50.8203 32.0527C54.2871 33.306 56.8018 34.8441 58.3643 36.667C59.943 38.4899 60.7324 40.8092 60.7324 43.625C60.7324 46.7174 59.7477 49.1344 57.7783 50.876C55.8089 52.6175 53.1315 53.4883 49.7461 53.4883C47.4512 53.4883 45.3597 53.0163 43.4717 52.0723C41.5837 51.1283 40.1025 49.7773 39.0283 48.0195C37.9704 46.2617 37.4414 44.1865 37.4414 41.7939H44.6436C44.6436 43.8447 45.0423 45.334 45.8398 46.2617C46.6374 47.1895 47.9395 47.6533 49.7461 47.6533C52.2526 47.6533 53.5059 46.3268 53.5059 43.6738Z" fill="white"/>
</svg>
