<?xml version="1.0" standalone="no"?>
<!DOCTYPE svg PUBLIC "-//W3C//DTD SVG 20010904//EN"
 "http://www.w3.org/TR/2001/REC-SVG-20010904/DTD/svg10.dtd">
<svg version="1.0" xmlns="http://www.w3.org/2000/svg"
 width="700.000000pt" height="700.000000pt" viewBox="0 0 700.000000 700.000000"
 preserveAspectRatio="xMidYMid meet">
<metadata>
Created by potrace 1.14, written by Peter Selinger 2001-2017
</metadata>
<g transform="translate(0.000000,700.000000) scale(0.100000,-0.100000)"
fill="#000000" stroke="none">
<path d="M834 6985 c-166 -30 -307 -91 -435 -187 -186 -140 -312 -331 -371
-564 l-23 -89 0 -2645 0 -2645 23 -89 c92 -364 357 -634 721 -734 l96 -27
2650 0 2650 0 89 23 c363 92 634 358 734 720 l27 97 0 2650 0 2650 -23 89
c-92 364 -357 634 -721 734 l-96 27 -2625 2 c-2103 1 -2639 -1 -2696 -12z
m4349 -1700 c343 -60 608 -241 758 -519 76 -141 123 -317 131 -486 l3 -75
-358 -3 -357 -2 0 42 c-1 72 -27 194 -53 252 -34 74 -107 149 -176 183 -48 24
-71 28 -163 31 -150 6 -219 -18 -304 -102 -84 -85 -107 -145 -108 -286 0 -120
13 -159 82 -247 76 -95 247 -198 497 -298 472 -188 734 -400 854 -689 63 -151
76 -229 75 -451 0 -172 -3 -211 -22 -277 -47 -171 -101 -272 -206 -385 -146
-157 -324 -249 -582 -299 -124 -25 -413 -25 -544 -1 -318 59 -598 227 -764
460 -100 140 -178 356 -191 527 -3 41 -8 94 -10 118 l-5 42 359 0 c405 0 371
8 371 -85 0 -81 26 -201 59 -271 72 -153 208 -224 431 -225 176 0 276 46 336
155 76 138 70 376 -12 507 -65 105 -233 206 -544 329 -205 81 -423 208 -564
327 -251 212 -377 540 -337 873 17 136 36 202 91 315 135 280 427 479 790 540
107 18 359 18 463 0z m-2963 -50 c139 -21 261 -59 385 -120 246 -121 428 -305
555 -560 90 -181 135 -343 159 -567 14 -126 14 -900 0 -1026 -41 -383 -172
-678 -399 -902 -176 -174 -395 -284 -670 -336 -82 -15 -170 -18 -662 -22
l-568 -3 0 1775 0 1776 553 0 c430 0 573 -3 647 -15z"/>
<path d="M1740 3481 l0 -1181 170 0 c201 0 293 15 395 65 131 63 214 179 260
358 41 165 47 274 43 822 -5 548 -9 597 -62 755 -62 183 -178 289 -367 335
-40 10 -135 18 -251 22 l-188 6 0 -1182z"/>
</g>
</svg>
